w400r100.ufo
<glyph name="_1" format="2">
	<unicode hex="0101"/>
	<unicode hex="002E"/>
	<unicode hex="002D"/>
	<unicode hex="2013"/>
	<unicode hex="2014"/>
	<unicode hex="2015"/>
	<unicode hex="002A"/>
	<unicode hex="005F"/>
	<unicode hex="2581"/>
	<unicode hex="0061"/>
	<advance width="400"/>
	<outline>
		<component base="cap"/>
		<component base="cap" yOffset="-390"/>
		<contour>
			<point x="0" y="200" type="line"/>
			<point x="0" y="-190" type="line"/>
			<point x="400" y="-190" type="line"/>
			<point x="400" y="200" type="line"/>
		</contour>
	</outline>
</glyph>
<glyph name="_12" format="2">
	<unicode hex="010C"/>
	<unicode hex="0067"/>
	<advance width="400"/>
	<outline>
		<component base="cap"/>
		<component base="cap" yOffset="-280"/>
		<contour>
			<point x="0" y="200" type="line"/>
			<point x="0" y="-80" type="line"/>
			<point x="400" y="-80" type="line"/>
			<point x="400" y="200" type="line"/>
		</contour>
	</outline>
</glyph>
<glyph name="_14" format="2">
	<unicode hex="010E"/>
	<unicode hex="2582"/>
	<unicode hex="0068"/>
	<advance width="400"/>
	<outline>
		<component base="cap"/>
		<component base="cap" yOffset="-260"/>
		<contour>
			<point x="0" y="200" type="line"/>
			<point x="0" y="-60" type="line"/>
			<point x="400" y="-60" type="line"/>
			<point x="400" y="200" type="line"/>
		</contour>
	</outline>
</glyph>
<glyph name="_18" format="2">
	<unicode hex="0112"/>
	<unicode hex="006A"/>
	<advance width="400"/>
	<outline>
		<component base="cap"/>
		<component base="cap" yOffset="-220"/>
		<contour>
			<point x="0" y="200" type="line"/>
			<point x="0" y="-20" type="line"/>
			<point x="400" y="-20" type="line"/>
			<point x="400" y="200" type="line"/>
		</contour>
	</outline>
</glyph>
<glyph name="_19" format="2">
	<unicode hex="0113"/>
	<advance width="400"/>
	<outline>
		<component base="cap"/>
		<component base="cap" yOffset="-210"/>
		<contour>
			<point x="0" y="200" type="line"/>
			<point x="0" y="-10" type="line"/>
			<point x="400" y="-10" type="line"/>
			<point x="400" y="200" type="line"/>
		</contour>
	</outline>
</glyph>
<glyph name="_23" format="2">
	<unicode hex="0117"/>
	<advance width="400"/>
	<outline>
		<component base="cap"/>
		<component base="cap" yOffset="-170"/>
		<contour>
			<point x="0" y="200" type="line"/>
			<point x="0" y="30" type="line"/>
			<point x="400" y="30" type="line"/>
			<point x="400" y="200" type="line"/>
		</contour>
	</outline>
</glyph>
<glyph name="_31" format="2">
	<unicode hex="011F"/>
	<advance width="400"/>
	<outline>
		<component base="cap"/>
		<component base="cap" yOffset="-90"/>
		<contour>
			<point x="0" y="200" type="line"/>
			<point x="0" y="110" type="line"/>
			<point x="400" y="110" type="line"/>
			<point x="400" y="200" type="line"/>
		</contour>
	</outline>
</glyph>
<glyph name="_63" format="2">
	<unicode hex="013F"/>
	<advance width="400"/>
	<outline>
		<component base="cap"/>
		<component base="cap" yOffset="230"/>
		<contour>
			<point x="0" y="200" type="line"/>
			<point x="0" y="430" type="line"/>
			<point x="400" y="430" type="line"/>
			<point x="400" y="200" type="line"/>
		</contour>
	</outline>
</glyph>
<glyph name="_85" format="2">
	<unicode hex="0155"/>
	<advance width="400"/>
	<outline>
		<component base="cap"/>
		<component base="cap" yOffset="450"/>
		<contour>
			<point x="0" y="200" type="line"/>
			<point x="0" y="650" type="line"/>
			<point x="400" y="650" type="line"/>
			<point x="400" y="200" type="line"/>
		</contour>
	</outline>
</glyph>
<glyph name="_100" format="2">
	<unicode hex="0164"/>
	<unicode hex="007C"/>
	<unicode hex="2588"/>
	<unicode hex="005A"/>
	<advance width="400"/>
	<outline>
		<component base="cap"/>
		<component base="cap" yOffset="600"/>
		<contour>
			<point x="0" y="200" type="line"/>
			<point x="0" y="800" type="line"/>
			<point x="400" y="800" type="line"/>
			<point x="400" y="200" type="line"/>
		</contour>
	</outline>
</glyph>
<glyph name="_6.center" format="2">
	<unicode hex="0406"/>
	<advance width="400"/>
	<outline>
		<component base="cap" yOffset="470"/>
		<component base="cap" yOffset="130"/>
		<contour>
			<point x="0" y="670" type="line"/>
			<point x="0" y="330" type="line"/>
			<point x="400" y="330" type="line"/>
			<point x="400" y="670" type="line"/>
		</contour>
	</outline>
</glyph>
<glyph name="_17.center" format="2">
	<unicode hex="0411"/>
	<advance width="400"/>
	<outline>
		<component base="cap" yOffset="415"/>
		<component base="cap" yOffset="185"/>
		<contour>
			<point x="0" y="615" type="line"/>
			<point x="0" y="385" type="line"/>
			<point x="400" y="385" type="line"/>
			<point x="400" y="615" type="line"/>
		</contour>
	</outline>
</glyph>
<glyph name="_18.center" format="2">
	<unicode hex="0412"/>
	<advance width="400"/>
	<outline>
		<component base="cap" yOffset="410"/>
		<component base="cap" yOffset="190"/>
		<contour>
			<point x="0" y="610" type="line"/>
			<point x="0" y="390" type="line"/>
			<point x="400" y="390" type="line"/>
			<point x="400" y="610" type="line"/>
		</contour>
	</outline>
</glyph>
<glyph name="_38.center" format="2">
	<unicode hex="0426"/>
	<advance width="400"/>
	<outline>
		<component base="cap" yOffset="310"/>
		<component base="cap" yOffset="290"/>
		<contour>
			<point x="0" y="510" type="line"/>
			<point x="0" y="490" type="line"/>
			<point x="400" y="490" type="line"/>
			<point x="400" y="510" type="line"/>
		</contour>
	</outline>
</glyph>
<glyph name="_46.center" format="2">
	<unicode hex="042E"/>
	<advance width="400"/>
	<outline>
		<component base="cap" yOffset="270"/>
		<component base="cap" yOffset="330"/>
		<contour>
			<point x="0" y="470" type="line"/>
			<point x="0" y="530" type="line"/>
			<point x="400" y="530" type="line"/>
			<point x="400" y="470" type="line"/>
		</contour>
	</outline>
</glyph>
<glyph name="_59.center" format="2">
	<unicode hex="043B"/>
	<advance width="400"/>
	<outline>
		<component base="cap" yOffset="205"/>
		<component base="cap" yOffset="395"/>
		<contour>
			<point x="0" y="405" type="line"/>
			<point x="0" y="595" type="line"/>
			<point x="400" y="595" type="line"/>
			<point x="400" y="405" type="line"/>
		</contour>
	</outline>
</glyph>
<glyph name="_67.center" format="2">
	<unicode hex="0443"/>
	<advance width="400"/>
	<outline>
		<component base="cap" yOffset="165"/>
		<component base="cap" yOffset="435"/>
		<contour>
			<point x="0" y="365" type="line"/>
			<point x="0" y="635" type="line"/>
			<point x="400" y="635" type="line"/>
			<point x="400" y="365" type="line"/>
		</contour>
	</outline>
</glyph>
<glyph name="_88.center" format="2">
	<unicode hex="0458"/>
	<advance width="400"/>
	<outline>
		<component base="cap" yOffset="60"/>
		<component base="cap" yOffset="540"/>
		<contour>
			<point x="0" y="260" type="line"/>
			<point x="0" y="740" type="line"/>
			<point x="400" y="740" type="line"/>
			<point x="400" y="260" type="line"/>
		</contour>
	</outline>
</glyph>
<glyph name="_31.clip.center" format="2">
	<advance width="400"/>
	<outline>
		<contour>
			<point x="0" y="585.25"/>
			<point x="69.75" y="655"/>
			<point x="155" y="655" type="curve" smooth="yes"/>
			<point x="245" y="655" type="line"/>
			<point x="330.25" y="655"/>
			<point x="400" y="585.25"/>
			<point x="400" y="500" type="curve" smooth="yes"/>
			<point x="400" y="500" type="line"/>
			<point x="400" y="414.75"/>
			<point x="330.25" y="345"/>
			<point x="245" y="345" type="curve" smooth="yes"/>
			<point x="155" y="345" type="line"/>
			<point x="69.75" y="345"/>
			<point x="0" y="414.75"/>
			<point x="0" y="500" type="curve" smooth="yes"/>
			<point x="0" y="500" type="line"/>
		</contour>
	</outline>
</glyph>
<glyph name="_34.clip" format="2">
	<advance width="400"/>
	<outline>
		<contour>
			<point x="0" y="263.5"/>
			<point x="76.5" y="340"/>
			<point x="170" y="340" type="curve" smooth="yes"/>
			<point x="230" y="340" type="line"/>
			<point x="323.5" y="340"/>
			<point x="400" y="263.5"/>
			<point x="400" y="170" type="curve" smooth="yes"/>
			<point x="400" y="170" type="line"/>
			<point x="400" y="76.5"/>
			<point x="323.5" y="0"/>
			<point x="230" y="0" type="curve" smooth="yes"/>
			<point x="170" y="0" type="line"/>
			<point x="76.5" y="0"/>
			<point x="0" y="76.5"/>
			<point x="0" y="170" type="curve" smooth="yes"/>
			<point x="0" y="170" type="line"/>
		</contour>
	</outline>
</glyph>
<glyph name="cap" format="2">
	<outline>
		<contour>
			<point x="0" y="310"/>
			<point x="89" y="400"/>
			<point x="200" y="400" type="curve" smooth="yes"/>
			<point x="200" y="400" type="line"/>
			<point x="310" y="400"/>
			<point x="400" y="310"/>
			<point x="400" y="200" type="curve" smooth="yes"/>
			<point x="400" y="200" type="line"/>
			<point x="400" y="89"/>
			<point x="310" y="0"/>
			<point x="200" y="0" type="curve" smooth="yes"/>
			<point x="200" y="0" type="line"/>
			<point x="89" y="0"/>
			<point x="0" y="89"/>
			<point x="0" y="200" type="curve" smooth="yes"/>
			<point x="0" y="200" type="line"/>
		</contour>
	</outline>
</glyph>
